:SAMPLES-PER-SECOND 30
:FULLY-SPECIFIED
:DEGREES
326
root  25.1823 39.453 9.78307 -6.17278 59.1588 -4.08614
RightUpLeg  -0.0788639 -11.718 1.5655
RightLeg  19.8416 -6.23187 0.896606
RightFoot  -16.2025 -0.307588 -4.64025
RightToes  0.00048216 0.542163 -0.142577
Spine  15.8786 -0.496755 10.7785
Spine1  12.1946 2.12286 -3.95499
HEad  6.25006 3.84625 -5.62985
LeftShoulder1  9.21155 -13.6945 -46.7324
LeftArm  -9.71489 13.2747 -26.1944
LeftForeArm  22.741 -26.8749 -4.55788
LeftHand  -0.25398 0.0180481 5.50724
RightShoulder  6.03524 10.644 36.6587
RightArm  3.60139 7.17154 34.0185
RightForeArm  -3.27776 21.6226 5.20579
RightHand  -0.939736 1.69795 -15.5218
LeftUpLeg  -23.5189 13.929 0.797316
LeftLeg  28.7759 2.05226 1.85054
LeftFoot  -1.88473 0.367065 -4.29782
LeftToes  1.06244e-005 4.65856e-005 -8.18505e-006
327
root  26.3315 39.341 10.4807 -7.32298 58.6446 -5.30182
RightUpLeg  2.96435 -10.9957 1.85257
RightLeg  18.6414 -6.56002 1.16116
RightFoot  -17.5155 -0.381475 -4.85872
RightToes  0.00048216 0.542163 -0.142577
Spine  15.3704 -0.389153 10.9715
Spine1  12.8423 2.27039 -4.26617
HEad  6.27654 4.45778 -5.94724
LeftShoulder1  9.2425 -13.7445 -46.7541
LeftArm  -10.216 13.5809 -25.9837
LeftForeArm  22.7038 -26.4741 -4.47167
LeftHand  -0.25398 0.0180481 5.50724
RightShoulder  5.97921 10.6377 36.2915
RightArm  5.22895 10.352 34.4657
RightForeArm  -4.06231 21.1867 5.34362
RightHand  -0.960732 1.72005 -15.8146
LeftUpLeg  -22.7066 18.1384 0.11117
LeftLeg  15.7806 2.92815 -0.139602
LeftFoot  0.134093 0.479339 -4.76569
LeftToes  1.06244e-005 4.65856e-005 -8.18505e-006
328
root  27.5172 39.1279 11.1998 -8.56165 58.3979 -6.45784
RightUpLeg  6.0314 -10.6784 2.11786
RightLeg  17.8772 -6.67439 1.20768
RightFoot  -19.3162 -0.438506 -4.46017
RightToes  0.00048216 0.542163 -0.142577
Spine  15.0093 -0.369357 10.7837
Spine1  13.6267 2.27217 -4.27111
HEad  6.27578 5.17467 -6.07522
LeftShoulder1  9.28586 -13.7857 -46.8642
LeftArm  -10.3255 13.6953 -25.6769
LeftForeArm  22.4659 -25.7197 -4.31987
LeftHand  -0.25398 0.0180481 5.50724
RightShoulder  5.9978 10.6948 36.2531
RightArm  6.56239 13.0818 34.6751
RightForeArm  -4.80046 20.9673 5.45681
RightHand  -0.96454 1.6452 -16.0359
LeftUpLeg  -20.0078 12.5199 3.90651
LeftLeg  2.71518 15.9804 -4.99384
LeftFoot  1.69472 0.631965 -5.63392
LeftToes  1.06244e-005 4.65856e-005 -8.18505e-006
329
root  28.7946 38.7224 11.9546 -10.267 58.596 -8.01912
RightUpLeg  8.85479 -11.3262 2.34903
RightLeg  18.3915 -6.21643 1.01722
RightFoot  -21.7599 -0.398027 -2.75864
RightToes  0.00048216 0.542163 -0.142577
Spine  14.6474 -0.428938 10.6744
Spine1  14.0436 1.9936 -3.94564
HEad  6.34435 5.68144 -5.75589
LeftShoulder1  9.29738 -13.838 -46.7788
LeftArm  -9.67639 13.6065 -25.3652
LeftForeArm  21.9478 -24.5481 -4.09433
LeftHand  -0.25398 0.0180481 5.50724
RightShoulder  6.07075 10.8032 36.438
RightArm  7.2023 14.9497 34.8584
RightForeArm  -4.93919 21.0829 5.44699
RightHand  -0.972876 1.63344 -16.1963
LeftUpLeg  -18.7888 6.66467 6.66058
LeftLeg  -6.26319 29.3068 -9.56546
LeftFoot  0.220361 0.717639 -7.13125
LeftToes  1.06244e-005 4.65856e-005 -8.18505e-006
330
root  30.1219 38.251 12.744 -11.5475 59.4084 -9.31413
RightUpLeg  11.4101 -12.9293 2.25963
RightLeg  19.3917 -5.43656 0.506516
RightFoot  -23.9434 -0.337018 -1.55477
RightToes  0.00048216 0.542163 -0.142577
Spine  14.3894 -0.555464 10.1031
Spine1  14.308 1.62575 -3.52543
HEad  6.50218 5.62437 -5.20983
LeftShoulder1  9.27815 -13.9626 -46.3381
LeftArm  -8.53852 13.4033 -25.1902
LeftForeArm  21.4311 -23.1107 -3.86261
LeftHand  -0.25398 0.0180481 5.50724
RightShoulder  6.1147 10.9023 36.4509
RightArm  7.19759 15.5459 35.2572
RightForeArm  -4.96993 21.8643 5.3094
RightHand  -1.00313 1.75789 -16.4128
LeftUpLeg  -19.2305 6.39263 6.04902
LeftLeg  -8.93822 34.9899 -10.967
LeftFoot  -1.68526 0.667127 -7.6452
LeftToes  1.06244e-005 4.65856e-005 -8.18505e-006
331
root  31.4437 37.8281 13.5672 -11.0735 60.4896 -8.93857
RightUpLeg  13.6229 -15.0378 1.31596
RightLeg  20.4965 -4.25444 -0.446218
RightFoot  -25.8265 -0.315773 -1.12596
RightToes  0.00048216 0.542163 -0.142577
Spine  14.488 -0.440001 8.1148
Spine1  14.6731 1.5086 -3.03247
HEad  6.60415 5.0985 -4.57022
LeftShoulder1  9.29992 -14.1709 -45.8855
LeftArm  -7.70751 13.0253 -24.8595
LeftForeArm  21.5832 -21.6502 -3.78301
LeftHand  -0.25398 0.0180481 5.50724
RightShoulder  6.18482 11.0048 36.6284
RightArm  6.55573 14.9618 35.3272
RightForeArm  -4.87384 23.4935 5.29255
RightHand  -1.01124 1.78247 -16.4883
LeftUpLeg  -19.7789 6.29363 4.84459
LeftLeg  -8.19996 37.5709 -11.5411
LeftFoot  0.632107 0.322703 -3.47474
LeftToes  1.06244e-005 4.65856e-005 -8.18505e-006
332
root  32.7021 37.4851 14.3941 -8.02612 61.5744 -5.916
RightUpLeg  14.7447 -16.2991 -0.688072
RightLeg  22.9212 -2.97839 -1.55698
RightFoot  -27.2293 0.0575329 1.67813
RightToes  0.00048216 0.542163 -0.142577
Spine  15.3487 0.106491 4.40843
Spine1  14.7567 1.58971 -2.35677
HEad  6.19887 4.49055 -3.68993
LeftShoulder1  9.41135 -14.3852 -45.8784
LeftArm  -7.47589 12.1007 -23.901
LeftForeArm  22.2177 -20.2589 -3.85202
LeftHand  -0.25398 0.0180481 5.50724
RightShoulder  6.40562 11.1867 37.571
RightArm  5.05959 13.9025 34.6245
RightForeArm  -3.65729 25.2795 5.6001
RightHand  -1.00529 1.76738 -16.4265
LeftUpLeg  -21.4702 7.27487 2.7114
LeftLeg  -3.30611 36.4034 -10.0588
LeftFoot  6.63435 -0.835161 4.95102
LeftToes  1.06244e-005 4.65856e-005 -8.18505e-006
333
root  33.8611 37.2052 15.1405 -3.79135 62.6834 -1.59824
RightUpLeg  13.3094 -14.9495 -2.79707
RightLeg  29.6218 -2.95002 -2.05113
RightFoot  -26.0936 0.798171 7.75222
RightToes  0.00048216 0.542163 -0.142577
Spine  17.486 0.713381 0.732147
Spine1  13.903 1.54004 -1.91209
HEad  4.93533 3.94152 -2.70562
LeftShoulder1  9.6036 -14.6224 -46.2131
LeftArm  -7.75887 10.2623 -22.3713
LeftForeArm  22.4216 -18.904 -4.03257
LeftHand  -0.25398 0.0180481 5.50724
RightShoulder  6.68508 11.4225 38.7118
RightArm  3.46562 13.2149 34.1156
RightForeArm  -1.82221 25.9905 5.67361
RightHand  -1.05284 2.04067 -16.5818
LeftUpLeg  -25.7244 13.3938 -2.65693
LeftLeg  6.75082 27.937 -4.38301
LeftFoot  10.8197 -2.45334 12.2522
LeftToes  1.06244e-005 4.65856e-005 -8.18505e-006
334
root  34.8795 37.1014 15.7022 -0.313721 63.8129 1.8801
RightUpLeg  8.33532 -14.3145 -4.94195
RightLeg  41.475 -1.75878 -1.94346
RightFoot  -18.5606 0.659471 12.2769
RightToes  0.00048216 0.542163 -0.142577
Spine  21.0993 0.745122 -0.854946
Spine1  12.518 1.40255 -2.68658
HEad  2.8565 3.33102 -2.42109
LeftShoulder1  9.85933 -15.0803 -46.2775
LeftArm  -8.45891 7.54144 -21.0262
LeftForeArm  21.65 -17.6498 -4.27898
LeftHand  -0.25398 0.0180481 5.50724
RightShoulder  6.76218 11.6088 38.6706
RightArm  2.07073 13.4848 35.0271
RightForeArm  -0.251956 24.9333 5.34221
RightHand  -1.09115 2.25353 -16.7238
LeftUpLeg  -30.4498 24.9882 -12.0157
LeftLeg  13.8773 12.7355 1.14968
LeftFoot  11.0466 -3.14961 15.4959
LeftToes  1.06244e-005 4.65856e-005 -8.18505e-006
335
root  35.711 37.1409 16.0536 1.61079 64.385 3.57208
RightUpLeg  -0.131184 -13.9147 -6.2732
RightLeg  55.2291 -0.926616 -1.89984
RightFoot  -4.69288 -0.613302 10.9965
RightToes  0.00048216 0.542163 -0.142577
Spine  25.515 0.258488 -0.359143
Spine1  11.718 1.5321 -4.67874
HEad  0.332634 2.6425 -3.44645
LeftShoulder1  10.0829 -15.81 -45.5142
LeftArm  -9.4349 4.24221 -20.8145
LeftForeArm  20.3307 -16.6382 -4.50609
LeftHand  -0.25398 0.0180481 5.50724
RightShoulder  6.59488 11.7677 37.1659
RightArm  1.24889 15.0699 36.8422
RightForeArm  0.436893 22.5562 4.96179
RightHand  -0.951266 1.60396 -15.8755
LeftUpLeg  -32.5438 28.5207 -15.7919
LeftLeg  17.2516 7.87836 3.08677
LeftFoot  8.56809 -2.79131 15.486
LeftToes  1.06244e-005 4.65856e-005 -8.18505e-006
336
root  36.3284 37.1665 16.298 3.17345 64.2529 4.5882
RightUpLeg  -9.65955 -13.3864 -6.85218
RightLeg  65.6119 -0.806572 -2.6211
RightFoot  6.57168 -1.01648 6.5772
RightToes  0.00048216 0.542163 -0.142577
Spine  29.8434 -0.0654538 0.0033073
Spine1  11.8614 1.90192 -6.50077
HEad  -2.25524 1.90967 -5.25497
LeftShoulder1  10.0843 -16.487 -43.9017
LeftArm  -10.4605 0.476628 -22.0409
LeftForeArm  19.2651 -15.8963 -4.67043
LeftHand  -0.25398 0.0180481 5.50724
RightShoulder  6.42713 12.0478 35.3548
RightArm  0.285273 18.078 37.7529
RightForeArm  1.50696 19.6121 5.29961
RightHand  -0.681715 0.321526 -13.8776
LeftUpLeg  -33.2756 29.4497 -16.5205
LeftLeg  19.3678 7.02153 3.08794
LeftFoot  6.32433 -2.34618 14.7678
LeftToes  1.06244e-005 4.65856e-005 -8.18505e-006
337
root  36.9179 37.3278 16.5978 4.0253 64.246 4.37407
RightUpLeg  -17.9432 -13.5874 -6.7493
RightLeg  70.7114 -0.948053 -3.87374
RightFoot  9.02275 -0.712818 4.26279
RightToes  0.00048216 0.542163 -0.142577
Spine  33.5223 -0.182165 0.22276
Spine1  12.1066 2.01406 -6.81405
HEad  -4.96241 1.16785 -6.6509
LeftShoulder1  9.85313 -16.7924 -42.1433
LeftArm  -11.3075 -3.95454 -23.8233
LeftForeArm  18.6415 -15.322 -4.80681
LeftHand  -0.25398 0.0180481 5.50724
RightShoulder  6.38659 12.4561 34.0577
RightArm  -1.44969 22.1488 37.1152
RightForeArm  3.58882 16.578 6.16464
RightHand  -0.523086 -0.38729 -12.1414
LeftUpLeg  -33.921 30.3738 -16.7648
LeftLeg  20.2069 5.82117 2.70516
LeftFoot  5.47066 -2.18069 14.4501
LeftToes  1.06244e-005 4.65856e-005 -8.18505e-006
